<svg version="1.1" xmlns="http://www.w3.org/2000/svg" viewBox="0 0 1293.8957140129314 628.9487299290602" width="1293.8957140129314" height="628.9487299290602">
  <!-- svg-source:excalidraw -->
  
  <defs>
    <style>
      @font-face {
        font-family: "Virgil";
        src: url("https://excalidraw.com/Virgil.woff2");
      }
      @font-face {
        font-family: "Cascadia";
        src: url("https://excalidraw.com/Cascadia.woff2");
      }
    </style>
  </defs>
  <rect x="0" y="0" width="1293.8957140129314" height="628.9487299290602" fill="#ffffff"></rect><g stroke-linecap="round" transform="translate(699.6634679729676 255.29573147686676) rotate(0 109.5 62.5)"><path d="M0.24 -1.07 C69.64 -0.47, 135.5 -1.25, 219.56 -0.73 M0.37 0.08 C54.85 1.42, 110.05 1.14, 219.02 0.38 M220.78 -1.84 C219.34 37.01, 221.16 75.43, 219.08 124.72 M218.75 -0.31 C217.76 29.73, 216.86 61.7, 219.7 125.74 M219.18 125.12 C162.46 124.72, 102.99 124.76, 0.61 125.35 M219.3 124.16 C144.64 124.43, 68.41 125.72, -0.26 124.54 M0 126.35 C1.62 89.69, -0.05 54.1, -1.56 0.24 M-0.33 124.84 C0.99 86.76, 1.47 46.95, -0.74 0.21" stroke="#000000" stroke-width="1" fill="none"></path></g><g stroke-linecap="round" transform="translate(362.12757892330967 10) rotate(0 101.5 95.5)"><path d="M103.98 0.09 C116.57 -1.21, 131.07 2, 142.99 7.01 C154.9 12.02, 166.74 21.34, 175.45 30.15 C184.16 38.97, 190.75 48.79, 195.23 59.9 C199.7 71.02, 202.26 84.61, 202.29 96.84 C202.33 109.07, 200.39 121.93, 195.44 133.27 C190.5 144.61, 182.04 156.36, 172.62 164.9 C163.2 173.43, 150.98 180.06, 138.92 184.46 C126.86 188.86, 113.28 191.61, 100.26 191.28 C87.23 190.96, 72.8 187.38, 60.77 182.52 C48.75 177.67, 37.12 170.98, 28.12 162.16 C19.11 153.34, 11.54 140.95, 6.74 129.6 C1.95 118.25, -0.95 106.22, -0.65 94.03 C-0.35 81.84, 3.28 67.85, 8.55 56.47 C13.81 45.09, 21.45 34.08, 30.92 25.75 C40.4 17.41, 52.04 10.84, 65.39 6.47 C78.75 2.09, 102.34 -0.03, 111.05 -0.52 C119.76 -1, 118 1.7, 117.68 3.55 M107.43 0.26 C119.83 -0.52, 135.81 3.96, 147.32 9.27 C158.83 14.58, 168.24 22.96, 176.52 32.11 C184.79 41.27, 192.49 52.38, 196.97 64.2 C201.45 76.02, 203.9 90.86, 203.37 103.04 C202.85 115.21, 199.69 126.81, 193.81 137.26 C187.94 147.71, 177.95 157.5, 168.13 165.75 C158.31 174, 147.24 182.75, 134.89 186.77 C122.55 190.8, 107.31 190.91, 94.06 189.93 C80.81 188.94, 67.11 186.24, 55.41 180.87 C43.71 175.5, 32.12 166.84, 23.84 157.7 C15.55 148.56, 9.62 137.36, 5.7 126.04 C1.77 114.72, -0.36 101.85, 0.29 89.77 C0.94 77.69, 4.09 64.81, 9.62 53.57 C15.15 42.33, 23.77 30.66, 33.49 22.34 C43.22 14.02, 55.69 7.15, 67.97 3.66 C80.25 0.16, 100.68 1.69, 107.15 1.37 C113.62 1.05, 106.63 0.24, 106.77 1.75" stroke="#000000" stroke-width="1" fill="none"></path></g><g transform="translate(367.12757892330967 80.5) rotate(0 96.5 25)"><text x="96.5" y="18" font-family="Virgil, Segoe UI Emoji" font-size="20px" fill="#000000" text-anchor="middle" style="white-space: pre;" direction="ltr">redis-timing-tracker</text><text x="96.5" y="43" font-family="Virgil, Segoe UI Emoji" font-size="20px" fill="#000000" text-anchor="middle" style="white-space: pre;" direction="ltr">Subscriber</text></g><g stroke-linecap="round"><g transform="translate(672.6634679729676 267.99344046808244) rotate(0 -60.46408356247946 -39.333145087446624)"><path d="M-0.41 -0.62 C-21 -14.18, -102.28 -67.35, -122.5 -80.33 M1.57 1.66 C-18.75 -11.27, -99.68 -65.73, -120.4 -79.42" stroke="#364fc7" stroke-width="1" fill="none"></path></g><g transform="translate(672.6634679729676 267.99344046808244) rotate(0 -60.46408356247946 -39.333145087446624)"><path d="M-92.29 -74.25 C-104.48 -75.83, -112.55 -77.23, -119.79 -79.14 M-90.86 -72.97 C-100.69 -75.87, -110.03 -77.41, -119.66 -80.16" stroke="#364fc7" stroke-width="1" fill="none"></path></g><g transform="translate(672.6634679729676 267.99344046808244) rotate(0 -60.46408356247946 -39.333145087446624)"><path d="M-103.68 -57.17 C-111.64 -65.26, -115.36 -73.2, -119.79 -79.14 M-102.25 -55.9 C-108.44 -64.36, -114.01 -71.54, -119.66 -80.16" stroke="#364fc7" stroke-width="1" fill="none"></path></g></g><g stroke-linecap="round"><g transform="translate(574.4660584775123 131.73780132703746) rotate(0 79.26755600411457 50.73183861914835)"><path d="M-0.01 -0.11 C26.53 16.9, 133.49 85.63, 160.01 102.67 M-1.48 -1.21 C24.85 15.42, 131.9 84.15, 159.09 101.03" stroke="#2b8a3e" stroke-width="1" fill="none"></path></g><g transform="translate(574.4660584775123 131.73780132703746) rotate(0 79.26755600411457 50.73183861914835)"><path d="M129.6 94.69 C141.93 95.59, 151.69 99.56, 160.22 99.7 M129.46 94.2 C139.52 96.93, 148.95 98, 158.8 101.28" stroke="#2b8a3e" stroke-width="1" fill="none"></path></g><g transform="translate(574.4660584775123 131.73780132703746) rotate(0 79.26755600411457 50.73183861914835)"><path d="M140.57 77.35 C149.02 84.52, 154.81 94.76, 160.22 99.7 M140.43 76.85 C146.85 85.19, 152.78 91.77, 158.8 101.28" stroke="#2b8a3e" stroke-width="1" fill="none"></path></g></g><g stroke-linecap="round" transform="translate(346.67372198715555 400.94872992906016) rotate(0 107.5 109)"><path d="M146.5 7.23 C158.37 10.23, 169.13 19.89, 178.61 28.73 C188.1 37.56, 197.41 48.58, 203.43 60.23 C209.46 71.87, 213.48 85.46, 214.75 98.59 C216.01 111.71, 214.52 126.34, 211.03 138.98 C207.55 151.62, 201.69 164.03, 193.84 174.42 C185.98 184.81, 175.03 194.24, 163.9 201.32 C152.76 208.4, 139.72 214.36, 127.03 216.91 C114.34 219.46, 100.45 218.91, 87.75 216.6 C75.06 214.29, 61.68 209.99, 50.86 203.04 C40.03 196.1, 30.73 185.51, 22.82 174.93 C14.9 164.36, 6.97 152.2, 3.34 139.58 C-0.29 126.96, -0.29 112.29, 1.01 99.23 C2.31 86.17, 5.67 73.08, 11.15 61.22 C16.64 49.36, 24.33 37.01, 33.93 28.07 C43.53 19.13, 56.59 12.41, 68.74 7.58 C80.9 2.75, 91.79 -1.97, 106.86 -0.93 C121.93 0.11, 148.61 9.96, 159.18 13.83 C169.74 17.7, 171.31 20.77, 170.25 22.29 M128.52 2.98 C140.7 3.47, 153.17 9.58, 163.92 16.46 C174.68 23.34, 185.19 34, 193.07 44.26 C200.96 54.51, 207.47 65.59, 211.24 78 C215.01 90.4, 216.86 105.58, 215.7 118.7 C214.54 131.81, 210.29 144.7, 204.27 156.69 C198.25 168.68, 189.11 181.66, 179.58 190.63 C170.05 199.6, 159.21 205.7, 147.1 210.51 C135 215.32, 119.89 219.47, 106.95 219.47 C94.01 219.46, 81.49 215.27, 69.45 210.5 C57.41 205.73, 44.43 199.58, 34.7 190.87 C24.96 182.16, 16.7 170.28, 11.03 158.23 C5.35 146.18, 1.92 131.63, 0.65 118.57 C-0.63 105.51, 0.04 92.51, 3.4 79.85 C6.76 67.2, 12.82 53.01, 20.8 42.64 C28.79 32.27, 39.97 24.53, 51.32 17.63 C62.67 10.74, 76.17 3.79, 88.91 1.29 C101.64 -1.21, 121.41 2.18, 127.75 2.62 C134.09 3.06, 127.47 2.23, 126.93 3.94" stroke="#000000" stroke-width="1" fill="none"></path></g><g transform="translate(351.67372198715555 484.94872992906016) rotate(0 102.5 25)"><text x="102.5" y="18" font-family="Virgil, Segoe UI Emoji" font-size="20px" fill="#000000" text-anchor="middle" style="white-space: pre;" direction="ltr">redis-timing-tracker-</text><text x="102.5" y="43" font-family="Virgil, Segoe UI Emoji" font-size="20px" fill="#000000" text-anchor="middle" style="white-space: pre;" direction="ltr">web BO</text></g><g stroke-linecap="round"><g transform="translate(607.1383400773735 471.70315853485783) rotate(0 60.099207390415586 -35.73544974470798)"><path d="M-1.07 -0.88 C18.81 -12.86, 98.94 -60.97, 119.18 -72.75 M0.57 1.28 C20.81 -10.49, 101.43 -59.11, 121.27 -71.6" stroke="#2b8a3e" stroke-width="1" fill="none"></path></g><g transform="translate(607.1383400773735 471.70315853485783) rotate(0 60.099207390415586 -35.73544974470798)"><path d="M101.15 -50.08 C106.97 -54.77, 114.4 -61.37, 122.73 -71.85 M102.25 -48.74 C110.14 -57.28, 116.53 -66.34, 120.34 -70.74" stroke="#2b8a3e" stroke-width="1" fill="none"></path></g><g transform="translate(607.1383400773735 471.70315853485783) rotate(0 60.099207390415586 -35.73544974470798)"><path d="M90.41 -67.57 C99.23 -67.08, 109.78 -68.59, 122.73 -71.85 M91.52 -66.23 C103.23 -68.35, 113.61 -70.91, 120.34 -70.74" stroke="#2b8a3e" stroke-width="1" fill="none"></path></g></g><g stroke-linecap="round"><g transform="translate(724.4993201226451 401.556397078034) rotate(0 -76.23106580609806 45.412162604841086)"><path d="M-0.23 -0.24 C-25.66 15.13, -126.33 76.97, -151.64 92.23 M-1.8 -1.41 C-27.42 13.64, -127.08 74.97, -152.24 90.66" stroke="#2b8a3e" stroke-width="1" fill="none"></path></g><g transform="translate(724.4993201226451 401.556397078034) rotate(0 -76.23106580609806 45.412162604841086)"><path d="M-134.05 68.22 C-138.96 76.38, -147.55 83.55, -153.78 92.21 M-132.84 67.2 C-137.33 71.67, -140.87 76.32, -152.29 91.35" stroke="#2b8a3e" stroke-width="1" fill="none"></path></g><g transform="translate(724.4993201226451 401.556397078034) rotate(0 -76.23106580609806 45.412162604841086)"><path d="M-123.26 85.68 C-132.28 87.18, -144.97 87.71, -153.78 92.21 M-122.04 84.65 C-128.82 85.55, -134.54 86.68, -152.29 91.35" stroke="#2b8a3e" stroke-width="1" fill="none"></path></g></g><g stroke-linecap="round" transform="translate(1060.8957140129314 14.017828251100298) rotate(0 111.5 108.37829198568639)"><path d="M153.21 6.93 C165.56 9.87, 177.05 20.27, 186.87 29.22 C196.68 38.17, 206.23 48.74, 212.07 60.61 C217.92 72.48, 220.99 87.35, 221.92 100.46 C222.86 113.56, 221.37 126.74, 217.69 139.25 C214.01 151.75, 208 165.26, 199.84 175.5 C191.69 185.74, 180.2 193.92, 168.77 200.67 C157.33 207.43, 144.58 213.59, 131.24 216 C117.89 218.41, 102.01 218.04, 88.68 215.15 C75.35 212.26, 62.39 205.83, 51.27 198.67 C40.16 191.5, 30.09 182.57, 22.02 172.16 C13.95 161.75, 6.37 148.89, 2.86 136.2 C-0.66 123.52, -0.77 108.89, 0.93 96.04 C2.64 83.2, 7.14 70.7, 13.09 59.11 C19.05 47.52, 26.77 35.27, 36.64 26.5 C46.52 17.72, 59.5 10.86, 72.36 6.44 C85.21 2.01, 98.41 -1.34, 113.77 -0.06 C129.13 1.21, 154.21 10.54, 164.52 14.08 C174.83 17.63, 176.44 19.79, 175.63 21.21 M109.79 -0.62 C122.59 -2.25, 137.14 3.36, 149.53 7.95 C161.93 12.54, 174.02 18.39, 184.16 26.92 C194.29 35.45, 203.86 47.4, 210.34 59.12 C216.81 70.85, 221.55 84.17, 223 97.25 C224.46 110.34, 222.74 124.99, 219.06 137.66 C215.38 150.32, 208.98 163.11, 200.92 173.24 C192.85 183.37, 181.98 191.64, 170.67 198.44 C159.36 205.24, 146.14 211.46, 133.07 214.06 C120.01 216.65, 105.39 216.05, 92.29 214 C79.19 211.96, 65.8 208.5, 54.46 201.78 C43.11 195.06, 32.58 184.35, 24.22 173.69 C15.87 163.04, 8.15 150.15, 4.34 137.84 C0.54 125.53, 0.33 112.74, 1.39 99.83 C2.45 86.91, 5.16 72.37, 10.69 60.35 C16.21 48.33, 24.54 36.21, 34.54 27.69 C44.54 19.17, 58.1 13.83, 70.68 9.22 C83.26 4.62, 103.6 1.07, 110.01 0.08 C116.43 -0.92, 109.36 1.5, 109.18 3.23" stroke="#000000" stroke-width="1" fill="none"></path></g><g transform="translate(1065.8957140129314 109.89612023678669) rotate(0 106.5 12.5)"><text x="106.5" y="18" font-family="Virgil, Segoe UI Emoji" font-size="20px" fill="#000000" text-anchor="middle" style="white-space: pre;" direction="ltr">example-project</text></g><g stroke-linecap="round"><g transform="translate(1046.5001055874968 153.866629024671) rotate(0 -55.38562017544132 41.00945775935665)"><path d="M-1.15 -0.76 C-10.09 5.92, -36.46 26.28, -54.8 40.21 C-73.14 54.13, -101.79 75.71, -111.21 82.78 M0.44 1.46 C-8.51 8.26, -37.33 28.08, -55.52 41.31 C-73.72 54.53, -99.38 74.3, -108.72 80.8" stroke="#364fc7" stroke-width="1" fill="none"></path></g><g transform="translate(1046.5001055874968 153.866629024671) rotate(0 -55.38562017544132 41.00945775935665)"><path d="M-93.28 56.59 C-96.73 59.46, -97.52 64.27, -107.84 82.53 M-92.85 55.89 C-97.81 65.7, -105.48 75.03, -108.39 80.64" stroke="#364fc7" stroke-width="1" fill="none"></path></g><g transform="translate(1046.5001055874968 153.866629024671) rotate(0 -55.38562017544132 41.00945775935665)"><path d="M-81.17 73.16 C-87.06 72.58, -90.28 74.07, -107.84 82.53 M-80.74 72.45 C-90.23 75.99, -102.55 78.97, -108.39 80.64" stroke="#364fc7" stroke-width="1" fill="none"></path></g></g><g transform="translate(704.6634679729676 305.29573147686676) rotate(0 104.5 12.5)"><text x="104.5" y="18" font-family="Virgil, Segoe UI Emoji" font-size="20px" fill="#000000" text-anchor="middle" style="white-space: pre;" direction="ltr">Redis Stack Server</text></g><g transform="translate(10 487.3464239384625) rotate(0 32 17.5)"><text x="0" y="25" font-family="Virgil, Segoe UI Emoji" font-size="28px" fill="#000000" text-anchor="start" style="white-space: pre;" direction="ltr">User</text></g><g stroke-linecap="round"><g transform="translate(90.72314161692509 507.3259159100867) rotate(0 115.01205605343603 -0.7671823033463454)"><path d="M-0.18 -0.99 C38.64 -1.26, 193.28 -0.68, 231.76 -0.86 M-1.74 1.11 C37.03 0.41, 191.7 -2.3, 230.85 -2.64" stroke="#000000" stroke-width="1" fill="none"></path></g><g transform="translate(90.72314161692509 507.3259159100867) rotate(0 115.01205605343603 -0.7671823033463454)"><path d="M201.16 8.1 C209.46 4.28, 213.19 5.43, 231.38 -1.17 M203.07 8.9 C212.84 4.28, 223.5 1, 230.08 -1.97" stroke="#000000" stroke-width="1" fill="none"></path></g><g transform="translate(90.72314161692509 507.3259159100867) rotate(0 115.01205605343603 -0.7671823033463454)"><path d="M200.87 -12.42 C209.37 -12.09, 213.16 -6.79, 231.38 -1.17 M202.79 -11.61 C212.86 -8.81, 223.62 -4.65, 230.08 -1.97" stroke="#000000" stroke-width="1" fill="none"></path></g></g><g transform="translate(854.6032409919009 82.24096986802533) rotate(0 77 37)"><text x="0" y="26" font-family="Virgil, Segoe UI Emoji" font-size="29.19589839432477px" fill="#000000" text-anchor="start" style="white-space: pre;" direction="ltr">Publish </text><text x="0" y="63" font-family="Virgil, Segoe UI Emoji" font-size="29.19589839432477px" fill="#000000" text-anchor="start" style="white-space: pre;" direction="ltr">some data</text></g><g transform="translate(427.06956502077935 234.71801514443933) rotate(0 96.5 35)"><text x="0" y="25" font-family="Virgil, Segoe UI Emoji" font-size="28px" fill="#000000" text-anchor="start" style="white-space: pre;" direction="ltr">Subscribe</text><text x="0" y="60" font-family="Virgil, Segoe UI Emoji" font-size="28px" fill="#000000" text-anchor="start" style="white-space: pre;" direction="ltr">to some data</text></g><g transform="translate(584.0312292759112 20.95117715887858) rotate(0 102.5 52.5)"><text x="0" y="25" font-family="Virgil, Segoe UI Emoji" font-size="28px" fill="#000000" text-anchor="start" style="white-space: pre;" direction="ltr">Write</text><text x="0" y="60" font-family="Virgil, Segoe UI Emoji" font-size="28px" fill="#000000" text-anchor="start" style="white-space: pre;" direction="ltr">result to some</text><text x="0" y="95" font-family="Virgil, Segoe UI Emoji" font-size="28px" fill="#000000" text-anchor="start" style="white-space: pre;" direction="ltr">data process</text></g><g transform="translate(663.2594978999304 464.92845605196635) rotate(0 188 17.5)"><text x="0" y="25" font-family="Virgil, Segoe UI Emoji" font-size="28px" fill="#000000" text-anchor="start" style="white-space: pre;" direction="ltr">Get data for visualization</text></g></svg>